<svg width="40" height="40" viewBox="0 0 40 40" fill="none" xmlns="http://www.w3.org/2000/svg">
<path d="M5 0C3.67392 0 2.40215 0.526784 1.46447 1.46447C0.526784 2.40215 0 3.67392 0 5L0 35C0 36.3261 0.526784 37.5979 1.46447 38.5355C2.40215 39.4732 3.67392 40 5 40L35 40C36.3261 40 37.5979 39.4732 38.5355 38.5355C39.4732 37.5979 40 36.3261 40 35L40 5C40 3.67392 39.4732 2.40215 38.5355 1.46447C37.5979 0.526784 36.3261 0 35 0L5 0ZM21.25 11.25L21.25 25.7325L26.615 20.365C26.7312 20.2488 26.8692 20.1566 27.021 20.0937C27.1729 20.0308 27.3356 19.9984 27.5 19.9984C27.6644 19.9984 27.8271 20.0308 27.979 20.0937C28.1308 20.1566 28.2688 20.2488 28.385 20.365C28.5012 20.4812 28.5934 20.6192 28.6563 20.771C28.7192 20.9229 28.7516 21.0856 28.7516 21.25C28.7516 21.4144 28.7192 21.5771 28.6563 21.729C28.5934 21.8808 28.5012 22.0188 28.385 22.135L20.885 29.635C20.7689 29.7514 20.6309 29.8438 20.4791 29.9068C20.3272 29.9698 20.1644 30.0022 20 30.0022C19.8356 30.0022 19.6728 29.9698 19.5209 29.9068C19.3691 29.8438 19.2311 29.7514 19.115 29.635L11.615 22.135C11.4988 22.0188 11.4066 21.8808 11.3437 21.729C11.2808 21.5771 11.2484 21.4144 11.2484 21.25C11.2484 21.0856 11.2808 20.9229 11.3437 20.771C11.4066 20.6192 11.4988 20.4812 11.615 20.365C11.8497 20.1303 12.1681 19.9984 12.5 19.9984C12.6644 19.9984 12.8271 20.0308 12.979 20.0937C13.1308 20.1566 13.2688 20.2488 13.385 20.365L18.75 25.7325L18.75 11.25C18.75 10.9185 18.8817 10.6005 19.1161 10.3661C19.3505 10.1317 19.6685 10 20 10C20.3315 10 20.6495 10.1317 20.8839 10.3661C21.1183 10.6005 21.25 10.9185 21.25 11.25Z" fill="#10828C"/>
</svg>
