<svg width="42" height="38" viewBox="0 0 42 38" fill="none" xmlns="http://www.w3.org/2000/svg">
<path d="M2.24999 0.25H39.75C40.3025 0.25 40.8324 0.469493 41.2231 0.860194C41.6138 1.25089 41.8333 1.7808 41.8333 2.33333V35.6667C41.8333 36.2192 41.6138 36.7491 41.2231 37.1398C40.8324 37.5305 40.3025 37.75 39.75 37.75H2.24999C1.69746 37.75 1.16755 37.5305 0.776851 37.1398C0.38615 36.7491 0.166656 36.2192 0.166656 35.6667V2.33333C0.166656 1.7808 0.38615 1.25089 0.776851 0.860194C1.16755 0.469493 1.69746 0.25 2.24999 0.25ZM13.7083 23.1667V27.3333H18.9167V31.5H23.0833V27.3333H25.1667C26.548 27.3333 27.8728 26.7846 28.8495 25.8078C29.8263 24.8311 30.375 23.5063 30.375 22.125C30.375 20.7437 29.8263 19.4189 28.8495 18.4422C27.8728 17.4654 26.548 16.9167 25.1667 16.9167H16.8333C16.5571 16.9167 16.2921 16.8069 16.0968 16.6116C15.9014 16.4162 15.7917 16.1513 15.7917 15.875C15.7917 15.5987 15.9014 15.3338 16.0968 15.1384C16.2921 14.9431 16.5571 14.8333 16.8333 14.8333H28.2917V10.6667H23.0833V6.5H18.9167V10.6667H16.8333C15.452 10.6667 14.1272 11.2154 13.1505 12.1922C12.1737 13.1689 11.625 14.4937 11.625 15.875C11.625 17.2563 12.1737 18.5811 13.1505 19.5578C14.1272 20.5346 15.452 21.0833 16.8333 21.0833H25.1667C25.4429 21.0833 25.7079 21.1931 25.9032 21.3884C26.0986 21.5838 26.2083 21.8487 26.2083 22.125C26.2083 22.4013 26.0986 22.6662 25.9032 22.8616C25.7079 23.0569 25.4429 23.1667 25.1667 23.1667H13.7083Z" fill="#0E3047"/>
</svg>
