<svg width="40" height="40" viewBox="0 0 40 40" fill="none" xmlns="http://www.w3.org/2000/svg">
<path d="M35 40C36.3261 40 37.5979 39.4732 38.5355 38.5355C39.4732 37.5979 40 36.3261 40 35L40 5C40 3.67392 39.4732 2.40215 38.5355 1.46447C37.5979 0.526787 36.3261 -3.21184e-07 35 -4.37114e-07L5 -3.0598e-06C3.67392 -3.17573e-06 2.40215 0.526784 1.46447 1.46446C0.52679 2.40215 3.17573e-06 3.67391 3.0598e-06 5L4.37114e-07 35C3.21184e-07 36.3261 0.526787 37.5978 1.46447 38.5355C2.40215 39.4732 3.67392 40 5 40L35 40ZM18.75 28.75L18.75 14.2675L13.385 19.635C13.2688 19.7512 13.1308 19.8434 12.979 19.9063C12.8271 19.9692 12.6644 20.0016 12.5 20.0016C12.3356 20.0016 12.1729 19.9692 12.021 19.9063C11.8692 19.8434 11.7312 19.7512 11.615 19.635C11.4988 19.5188 11.4066 19.3808 11.3437 19.229C11.2808 19.0771 11.2484 18.9144 11.2484 18.75C11.2484 18.5856 11.2808 18.4229 11.3437 18.271C11.4066 18.1192 11.4988 17.9812 11.615 17.865L19.115 10.365C19.2311 10.2486 19.3691 10.1562 19.5209 10.0932C19.6728 10.0302 19.8356 9.99776 20 9.99776C20.1644 9.99776 20.3272 10.0302 20.4791 10.0932C20.6309 10.1562 20.7689 10.2486 20.885 10.365L28.385 17.865C28.5012 17.9812 28.5934 18.1192 28.6563 18.271C28.7192 18.4229 28.7516 18.5856 28.7516 18.75C28.7516 18.9144 28.7192 19.0771 28.6563 19.229C28.5934 19.3808 28.5012 19.5188 28.385 19.635C28.1503 19.8697 27.8319 20.0016 27.5 20.0016C27.3356 20.0016 27.1729 19.9692 27.021 19.9063C26.8692 19.8434 26.7312 19.7512 26.615 19.635L21.25 14.2675L21.25 28.75C21.25 29.0815 21.1183 29.3995 20.8839 29.6339C20.6495 29.8683 20.3315 30 20 30C19.6685 30 19.3505 29.8683 19.1161 29.6339C18.8817 29.3995 18.75 29.0815 18.75 28.75Z" fill="#F76262"/>
</svg>
